<svg width="112" height="31" viewBox="0 0 112 31" fill="none" xmlns="http://www.w3.org/2000/svg">
<path d="M13.2353 3H9.79412L19.1471 24.8525H0L1.58824 28H24L13.2353 3Z" fill="white"/>
<path d="M3.17647 22.5144L1.76471 19.4568H10.6765L6.52941 9.92446L8.55882 6.77698L15.4412 22.5144H3.17647Z" fill="white"/>
<path d="M13.2353 3H9.79412L19.1471 24.8525H0L1.58824 28H24L13.2353 3Z" stroke="white"/>
<path d="M3.17647 22.5144L1.76471 19.4568H10.6765L6.52941 9.92446L8.55882 6.77698L15.4412 22.5144H3.17647Z" stroke="white"/>
<path d="M50.3281 24H47.2578V13.9922L41.8555 23.4961C41.7227 23.7383 41.5352 23.9219 41.293 24.0469C41.0586 24.1719 40.8047 24.2344 40.5312 24.2344C40.2656 24.2344 40.0156 24.1719 39.7812 24.0469C39.5547 23.9219 39.375 23.7383 39.2422 23.4961L33.8164 13.9922V24H30.7695V8.49609C30.7695 8.14453 30.8711 7.83203 31.0742 7.55859C31.2852 7.28516 31.5586 7.10156 31.8945 7.00781C32.0586 6.96875 32.2227 6.95703 32.3867 6.97266C32.5508 6.98047 32.707 7.01563 32.8555 7.07812C33.0117 7.13281 33.1523 7.21484 33.2773 7.32422C33.4023 7.42578 33.5078 7.55078 33.5938 7.69922L40.5312 19.7578L47.4688 7.69922C47.6484 7.40234 47.8945 7.19141 48.207 7.06641C48.5273 6.94141 48.8594 6.92188 49.2031 7.00781C49.5312 7.10156 49.8008 7.28516 50.0117 7.55859C50.2227 7.83203 50.3281 8.14453 50.3281 8.49609V24ZM70.6484 20.3086C70.6484 20.6836 70.582 21.0859 70.4492 21.5156C70.3242 21.9453 70.1133 22.3438 69.8164 22.7109C69.5273 23.0781 69.1484 23.3867 68.6797 23.6367C68.2109 23.8789 67.6367 24 66.957 24H55.3906C55.1719 24 54.9688 23.9609 54.7812 23.8828C54.5938 23.8047 54.4297 23.6992 54.2891 23.5664C54.1562 23.4258 54.0508 23.2617 53.9727 23.0742C53.8945 22.8867 53.8555 22.6836 53.8555 22.4648V8.73047C53.8555 8.51953 53.8945 8.32031 53.9727 8.13281C54.0508 7.94531 54.1562 7.78125 54.2891 7.64062C54.4297 7.5 54.5938 7.39063 54.7812 7.3125C54.9688 7.23437 55.1719 7.19531 55.3906 7.19531H65.5859C65.9609 7.19531 66.3633 7.26172 66.793 7.39453C67.2227 7.52734 67.6211 7.74219 67.9883 8.03906C68.3633 8.32812 68.6719 8.70703 68.9141 9.17578C69.1641 9.64453 69.2891 10.2188 69.2891 10.8984V11.4727C69.2891 12.0117 69.1992 12.5938 69.0195 13.2188C68.8398 13.8359 68.5508 14.4219 68.1523 14.9766C68.4961 15.1875 68.8164 15.4414 69.1133 15.7383C69.418 16.0352 69.6836 16.3789 69.9102 16.7695C70.1367 17.1602 70.3164 17.6016 70.4492 18.0938C70.582 18.5859 70.6484 19.1289 70.6484 19.7227V20.3086ZM67.6016 19.7227C67.6016 19.3242 67.5391 18.9688 67.4141 18.6562C67.2891 18.3359 67.1133 18.0625 66.8867 17.8359C66.6602 17.6094 66.3867 17.4375 66.0664 17.3203C65.7461 17.1953 65.3867 17.1328 64.9883 17.1328H58.1211V14.0625H63.6172C64.0156 14.0625 64.375 14.0039 64.6953 13.8867C65.0156 13.7617 65.2891 13.5859 65.5156 13.3594C65.7422 13.1328 65.9141 12.8633 66.0312 12.5508C66.1562 12.2305 66.2188 11.8711 66.2188 11.4727V10.8984C66.2188 10.4609 66.0078 10.2422 65.5859 10.2422H56.9023V20.9531H66.957C67.0117 20.9531 67.0781 20.9492 67.1562 20.9414C67.2344 20.9336 67.3047 20.9102 67.3672 20.8711C67.4297 20.832 67.4844 20.7656 67.5312 20.6719C67.5781 20.5781 67.6016 20.4492 67.6016 20.2852V19.7227ZM89.7969 24H86.75V19.875H76.0391V24H72.9922V15.5977C72.9922 14.3711 73.2031 13.2422 73.625 12.2109C74.0469 11.1797 74.6328 10.293 75.3828 9.55078C76.1328 8.80859 77.0195 8.23047 78.043 7.81641C79.0664 7.40234 80.1836 7.19531 81.3945 7.19531H88.2617C88.4727 7.19531 88.6719 7.23437 88.8594 7.3125C89.0469 7.39063 89.2109 7.5 89.3516 7.64062C89.4922 7.78125 89.6016 7.94531 89.6797 8.13281C89.7578 8.32031 89.7969 8.51953 89.7969 8.73047V24ZM76.0391 16.8281H86.75V10.2422H81.3945C81.3008 10.2422 81.1016 10.2578 80.7969 10.2891C80.5 10.3125 80.1523 10.3789 79.7539 10.4883C79.3633 10.5977 78.9492 10.7656 78.5117 10.9922C78.0742 11.2188 77.6719 11.5312 77.3047 11.9297C76.9375 12.3281 76.6328 12.8281 76.3906 13.4297C76.1562 14.0234 76.0391 14.7461 76.0391 15.5977V16.8281ZM110.141 12.8438C110.141 13.5391 110.055 14.1602 109.883 14.707C109.711 15.2539 109.477 15.7383 109.18 16.1602C108.891 16.5742 108.555 16.9297 108.172 17.2266C107.789 17.5234 107.387 17.7695 106.965 17.9648C106.551 18.1523 106.129 18.2891 105.699 18.375C105.277 18.4609 104.879 18.5039 104.504 18.5039L110.867 24H106.156L99.8047 18.5039H97.6133V15.457H104.504C104.887 15.4258 105.234 15.3477 105.547 15.2227C105.867 15.0898 106.141 14.9141 106.367 14.6953C106.602 14.4766 106.781 14.2148 106.906 13.9102C107.031 13.5977 107.094 13.2422 107.094 12.8438V10.9219C107.094 10.75 107.07 10.6211 107.023 10.5352C106.984 10.4414 106.93 10.375 106.859 10.3359C106.797 10.2891 106.727 10.2617 106.648 10.2539C106.578 10.2461 106.512 10.2422 106.449 10.2422H96.3945V24H93.3477V8.73047C93.3477 8.51953 93.3867 8.32031 93.4648 8.13281C93.543 7.94531 93.6484 7.78125 93.7812 7.64062C93.9219 7.5 94.0859 7.39063 94.2734 7.3125C94.4609 7.23437 94.6641 7.19531 94.8828 7.19531H106.449C107.129 7.19531 107.703 7.32031 108.172 7.57031C108.641 7.8125 109.02 8.12109 109.309 8.49609C109.605 8.86328 109.816 9.26172 109.941 9.69141C110.074 10.1211 110.141 10.5234 110.141 10.8984V12.8438Z" fill="white"/>
</svg>
